<svg version="1.2" baseProfile="tiny-ps" xmlns="http://www.w3.org/2000/svg" viewBox="0 0 19 28" width="19" height="28">
	<title>listening-shape-svg</title>
	<style>
		tspan { white-space:pre }
		.shp0 { fill: #000000 } 
	</style>
	<g id="Page-1">
		<g id="096---Listening">
			<path id="Shape" class="shp0" d="M9 14.26C9.1 11.27 10.45 8.45 12.76 6.42C13.04 6.18 13.16 5.82 13.07 5.48C12.99 5.14 12.7 4.86 12.34 4.79C11.97 4.7 11.59 4.82 11.35 5.08C8.66 7.46 7.09 10.76 7 14.24C7.05 17.73 8.59 21.04 11.24 23.45C11.48 23.72 11.86 23.84 12.23 23.76C12.59 23.69 12.88 23.41 12.97 23.07C13.07 22.73 12.95 22.37 12.67 22.13C10.38 20.08 9.07 17.24 9 14.26L9 14.26Z" />
			<path id="Shape" class="shp0" d="M17.69 8.86C17.51 8.7 17.25 8.61 16.98 8.62C16.72 8.64 16.47 8.75 16.28 8.94C13.27 11.92 13.24 16.64 16.22 19.66C16.46 19.91 16.82 20.03 17.17 19.96C17.52 19.9 17.81 19.65 17.93 19.33C18.04 19.02 17.96 18.66 17.73 18.41C15.41 16.1 15.43 12.48 17.78 10.2C17.95 10.02 18.04 9.77 18.03 9.52C18.01 9.27 17.89 9.03 17.69 8.86L17.69 8.86Z" />
			<path id="Shape" class="shp0" d="M2 14.22C2.03 10.05 4.02 6.04 7.77 2.62C8.03 2.39 8.13 2.04 8.04 1.7C7.96 1.38 7.69 1.12 7.35 1.03C7.01 0.93 6.64 1.01 6.38 1.25C2.24 5.03 0.03 9.51 0 14.21C-0.02 18.9 2.13 23.4 6.23 27.23C6.63 27.59 7.26 27.6 7.65 27.22C8.03 26.84 8.04 26.25 7.64 25.88C3.93 22.42 1.98 18.38 2 14.22L2 14.22Z" />
		</g>
	</g>
</svg>