<svg width="361.001" height="95.6" xmlns="http://www.w3.org/2000/svg"><path d="M0 0h46v14H14.5v16.7h27.3v14H14.5v28.9H0V0zm348.1 29.9H361v43.7q0 6.2-3.55 11.25a23.484 23.484 0 01-8.127 7.153 28.241 28.241 0 01-1.473.747q-6.05 2.85-13.15 2.85a38.078 38.078 0 01-4.467-.249q-2.346-.277-4.37-.864a22.451 22.451 0 01-.613-.187q-3.009-.966-5.135-2.097a17.744 17.744 0 01-1.365-.803 45.573 45.573 0 01-1.884-1.305q-.894-.651-1.885-1.424A101.701 101.701 0 01312.9 87l8.2-9.6q3 2.8 5.95 4.4 2.534 1.374 6.211 1.568a23.535 23.535 0 001.239.032 17.56 17.56 0 004.169-.472 13.141 13.141 0 004.731-2.178 8.443 8.443 0 003.536-6.138A11.289 11.289 0 00347 73.4v-6.2q-2 3.4-6.15 5.5t-10.15 2.1q-5.9 0-10.95-3.05-5.05-3.05-8.05-8.4a23.719 23.719 0 01-2.997-11.432 27.93 27.93 0 01-.003-.418q0-6.6 3.15-12.1t8.3-8.6a21.128 21.128 0 018.034-2.906A20.38 20.38 0 01331 27.7a32.157 32.157 0 014.95.364 24.133 24.133 0 014.65 1.186q4.2 1.55 6.4 4.05l1.1-3.4zM118.9 10.7h14v19h10.6v10.9h-10.6v33h-14v-33h-6.8V29.7h6.8v-19zm96.5 0h14v19H240v10.9h-10.6v33h-14v-33h-6.8V29.7h6.8v-19zm69.3 19.2h13v43.7h-14v-5.4q-6.3 6.6-14.6 6.6a26.42 26.42 0 01-7.15-.921 20.04 20.04 0 01-8.6-4.879 18.376 18.376 0 01-4.786-7.949Q247.3 57.01 247.3 51.8a29.789 29.789 0 01.715-6.664 23.559 23.559 0 012.235-5.986 22.948 22.948 0 014.449-5.855A20.835 20.835 0 01258.1 30.7q4.9-3 10.5-3a31.254 31.254 0 013.548.188q3.368.386 5.652 1.562 3.4 1.75 6 4.95l.9-4.5zM55.455 43.6a24.385 24.385 0 00-1.155 7.6q0 7.3 3.15 12.6t8.8 8.15a25.571 25.571 0 005.861 2.092 31.85 31.85 0 007.089.758 32.272 32.272 0 005.139-.394 24.328 24.328 0 007.911-2.656q5.55-3.05 8.55-8.45a23.176 23.176 0 001.828-4.233A25.78 25.78 0 00103.8 51.2q0-6.7-3-12t-8.55-8.35Q86.7 27.8 79.4 27.8a32.394 32.394 0 00-3.553.191 26.195 26.195 0 00-9.497 2.859 26.195 26.195 0 00-.357.193A22.116 22.116 0 0057.45 39.2a21.818 21.818 0 00-1.995 4.4zm96.5 0a24.385 24.385 0 00-1.155 7.6q0 7.3 3.15 12.6t8.8 8.15a25.571 25.571 0 005.861 2.092 31.85 31.85 0 007.089.758 32.272 32.272 0 005.139-.394 24.328 24.328 0 007.911-2.656q5.55-3.05 8.55-8.45a23.176 23.176 0 001.828-4.233A25.78 25.78 0 00200.3 51.2q0-6.7-3-12t-8.55-8.35q-5.55-3.05-12.85-3.05a32.394 32.394 0 00-3.553.191 26.195 26.195 0 00-9.497 2.859 26.195 26.195 0 00-.357.193 22.116 22.116 0 00-8.543 8.157 21.818 21.818 0 00-1.995 4.4zM347 56.8V46.1a10.75 10.75 0 00-4.105-4.764 13.36 13.36 0 00-.545-.336 13.927 13.927 0 00-5.658-1.809 17.3 17.3 0 00-1.792-.091 12.621 12.621 0 00-4.834.904A11.807 11.807 0 00326.3 42.5q-3.5 3.4-3.5 8.6a12.724 12.724 0 00.93 4.923 11.943 11.943 0 002.57 3.827 11.581 11.581 0 008.401 3.549 14.523 14.523 0 00.199.001 16.665 16.665 0 004.899-.677A12.105 12.105 0 00347 56.8zm-63.3 0V46.1q-1.2-3.2-4.15-5.1-2.95-1.9-6.95-1.9a10.427 10.427 0 00-7.646 3.191 13.107 13.107 0 00-.204.209 11.609 11.609 0 00-3.186 7.173 15.508 15.508 0 00-.064 1.427q0 3.4 1.6 6.25a12.069 12.069 0 003.141 3.69 11.635 11.635 0 001.109.76q2.65 1.6 5.75 1.6 6.487 0 9.815-5.211a15.238 15.238 0 00.785-1.389zM68.4 51.3a14.841 14.841 0 00.554 4.146A11.775 11.775 0 0071.4 59.95a9.577 9.577 0 006.961 3.433A11.836 11.836 0 0079 63.4a11 11 0 003.721-.605A9.507 9.507 0 0086.75 60q2.95-3.4 2.95-8.7a15.583 15.583 0 00-.482-3.975A11.611 11.611 0 0086.75 42.6a9.629 9.629 0 00-7.011-3.379A12.967 12.967 0 0079 39.2a9.985 9.985 0 00-4.377.945A9.997 9.997 0 0071.4 42.65a12.115 12.115 0 00-2.867 6.534A16.284 16.284 0 0068.4 51.3zm96.5 0a14.841 14.841 0 00.554 4.146 11.775 11.775 0 002.446 4.504 9.577 9.577 0 006.961 3.433 11.836 11.836 0 00.639.017 11 11 0 003.721-.605A9.507 9.507 0 00183.25 60q2.95-3.4 2.95-8.7a15.583 15.583 0 00-.482-3.975 11.611 11.611 0 00-2.468-4.725 9.629 9.629 0 00-7.011-3.379 12.967 12.967 0 00-.739-.021 9.985 9.985 0 00-4.377.945 9.997 9.997 0 00-3.223 2.505 12.115 12.115 0 00-2.867 6.534 16.284 16.284 0 00-.133 2.116z" vector-effect="non-scaling-stroke" style="animation:IzLNcqab_draw_0 3000ms linear 0ms infinite,IzLNcqab_fade 3000ms linear 0ms infinite" stroke-dasharray="1745 1747" stroke-dashoffset="1746" id="svgGroup" stroke-linecap="round" fill-rule="evenodd" font-size="12" stroke="#fff" stroke-width="1mm" fill="none"/><style data-made-with="vivus-instant">@keyframes IzLNcqab_draw{to{stroke-dashoffset:0}}@keyframes IzLNcqab_fade{0%{stroke-opacity:1}to{stroke-opacity:0}}@keyframes IzLNcqab_draw_0{0%{stroke-dashoffset:1746}66.66666666666666%,to{stroke-dashoffset:0}}</style></svg>